<svg width="32" height="32" viewBox="0 0 32 32" fill="none" xmlns="http://www.w3.org/2000/svg">
<path fill-rule="evenodd" clip-rule="evenodd" d="M12.9037 14.3259H29.7629V25.9704H12.9037V14.3259ZM29.7629 12.3259H31.7629V14.3259V25.9704V27.9704H29.7629H27.9704V32L22.7555 27.9704H12.9037H10.9037V25.9704V14.3259V12.3259H12.9037H29.7629ZM14.8815 17.75H15.6315H27.1315H27.8815V19.25H27.1315H15.6315H14.8815V17.75ZM14.8815 21.25H15.6315H27.1315H27.8815V22.75H27.1315H15.6315H14.8815V21.25Z" fill="black"/>
<mask id="path-2-inside-1_17_5818" fill="white">
<path fill-rule="evenodd" clip-rule="evenodd" d="M20.8593 0H0V15.6444H20.8593V0ZM9.00742 15.6445L3.7926 19.6741V15.6445H9.00742Z"/>
</mask>
<path fill-rule="evenodd" clip-rule="evenodd" d="M20.8593 0H0V15.6444H20.8593V0ZM9.00742 15.6445L3.7926 19.6741V15.6445H9.00742Z" fill="black"/>
<path d="M0 0V-2H-2V0H0ZM20.8593 0H22.8593V-2H20.8593V0ZM0 15.6444H-2V17.6444H0V15.6444ZM20.8593 15.6444V17.6444H22.8593V15.6444H20.8593ZM3.7926 19.6741H1.7926V23.7471L5.0155 21.2567L3.7926 19.6741ZM9.00742 15.6445L10.2303 17.227L14.8666 13.6445H9.00742V15.6445ZM3.7926 15.6445V13.6445H1.7926V15.6445H3.7926ZM0 2H20.8593V-2H0V2ZM2 15.6444V0H-2V15.6444H2ZM20.8593 13.6444H0V17.6444H20.8593V13.6444ZM18.8593 0V15.6444H22.8593V0H18.8593ZM5.0155 21.2567L10.2303 17.227L7.78452 14.0619L2.56971 18.0915L5.0155 21.2567ZM1.7926 15.6445V19.6741H5.7926V15.6445H1.7926ZM9.00742 13.6445H3.7926V17.6445H9.00742V13.6445Z" fill="black" mask="url(#path-2-inside-1_17_5818)"/>
<path d="M11.0801 9.45857H8.79282C8.79282 8.35786 8.92541 7.88143 9.68785 7.25714L10.5 6.6C10.9475 6.22214 11.0635 5.84429 11.0635 5.43357C11.0635 4.80929 10.6492 4.33286 9.63812 4.33286C8.99171 4.33286 8.04696 4.66143 7.5 5.13786V2.46C8.17956 2.14786 8.92541 2 9.85359 2C12.489 2 13.5 3.65929 13.5 5.22C13.5 6.41929 12.953 7.07643 12.4392 7.53643L11.5939 8.325C11.2127 8.67 11.0801 8.9 11.0801 9.45857ZM8.39503 11.9886C8.39503 11.1014 9.04144 10.4443 9.91989 10.4443C10.8149 10.4443 11.4779 11.1014 11.4779 11.9886C11.4779 12.8593 10.8149 13.5 9.91989 13.5C9.04144 13.5 8.39503 12.8593 8.39503 11.9886Z" fill="#66ED00"/>
</svg>
