<svg width="32" height="32" viewBox="0 0 32 32" fill="none" xmlns="http://www.w3.org/2000/svg">
<path fill-rule="evenodd" clip-rule="evenodd" d="M29.7629 14.3259H12.9037V25.9704H29.7629V14.3259ZM31.7629 12.3259H29.7629H12.9037H10.9037V14.3259V25.9704V27.9704H12.9037H22.7555L27.9703 32V27.9704H29.7629H31.7629V25.9704V14.3259V12.3259Z" fill="#F0F0F0"/>
<rect x="1.5" y="2" width="18" height="12" fill="#6EFF00"/>
<path fill-rule="evenodd" clip-rule="evenodd" d="M2 2H18.8593V13.6444H2V2ZM0 0H2H18.8593H20.8593V2V13.6444V15.6444H18.8593H9.00741L3.79259 19.6741V15.6444H2H0V13.6444V2V0Z" fill="#6EFF00"/>
<path d="M15.6315 22H27.1315" stroke="#F0F0F0" stroke-width="1.5" stroke-linecap="square" stroke-linejoin="round"/>
<path d="M15.6315 18.5H27.1315" stroke="#F0F0F0" stroke-width="1.5" stroke-linecap="square" stroke-linejoin="round"/>
<path d="M11.0801 9.45857H8.79282C8.79282 8.35786 8.92541 7.88143 9.68785 7.25714L10.5 6.6C10.9475 6.22214 11.0635 5.84429 11.0635 5.43357C11.0635 4.80929 10.6492 4.33286 9.63812 4.33286C8.99171 4.33286 8.04696 4.66143 7.5 5.13786V2.46C8.17956 2.14786 8.92541 2 9.85359 2C12.489 2 13.5 3.65929 13.5 5.22C13.5 6.41929 12.953 7.07643 12.4392 7.53643L11.5939 8.325C11.2127 8.67 11.0801 8.9 11.0801 9.45857ZM8.39503 11.9886C8.39503 11.1014 9.04144 10.4443 9.91989 10.4443C10.8149 10.4443 11.4779 11.1014 11.4779 11.9886C11.4779 12.8593 10.8149 13.5 9.91989 13.5C9.04144 13.5 8.39503 12.8593 8.39503 11.9886Z" fill="#232428"/>
</svg>
