<svg width="32" height="32" viewBox="0 0 32 32" fill="none" xmlns="http://www.w3.org/2000/svg">
<path fill-rule="evenodd" clip-rule="evenodd" d="M12.9037 14.3259H29.7629V25.9704H12.9037V14.3259ZM29.7629 12.3259H31.7629V14.3259V25.9704V27.9704H29.7629H27.9704V32L22.7555 27.9704H12.9037H10.9037V25.9704V14.3259C10.9037 13.2214 11.7991 12.3259 12.9037 12.3259H29.7629ZM14.8815 17.75H15.6315H27.1315H27.8815V19.25H27.1315H15.6315H14.8815V17.75ZM14.8815 21.25H15.6315H27.1315H27.8815V22.75H27.1315H15.6315H14.8815V21.25Z" fill="black"/>
<mask id="path-2-inside-1_17_5768" fill="white">
<path fill-rule="evenodd" clip-rule="evenodd" d="M0 0H20.8593V15.6444H0V0ZM3.7926 19.6741L9.00742 15.6445H3.7926V19.6741ZM8.79282 9.45857H11.0801C11.0801 8.9 11.2127 8.67 11.5939 8.325L12.4392 7.53643C12.953 7.07643 13.5 6.41929 13.5 5.22C13.5 3.65929 12.489 2 9.85359 2C8.92541 2 8.17956 2.14786 7.5 2.46V5.13786C8.04696 4.66143 8.99171 4.33286 9.63812 4.33286C10.6492 4.33286 11.0635 4.80929 11.0635 5.43357C11.0635 5.84429 10.9475 6.22214 10.5 6.6L9.68785 7.25714C8.92541 7.88143 8.79282 8.35786 8.79282 9.45857ZM9.91989 10.4443C9.04144 10.4443 8.39503 11.1014 8.39503 11.9886C8.39503 12.8593 9.04144 13.5 9.91989 13.5C10.8149 13.5 11.4779 12.8593 11.4779 11.9886C11.4779 11.1014 10.8149 10.4443 9.91989 10.4443Z"/>
</mask>
<path fill-rule="evenodd" clip-rule="evenodd" d="M0 0H20.8593V15.6444H0V0ZM3.7926 19.6741L9.00742 15.6445H3.7926V19.6741ZM8.79282 9.45857H11.0801C11.0801 8.9 11.2127 8.67 11.5939 8.325L12.4392 7.53643C12.953 7.07643 13.5 6.41929 13.5 5.22C13.5 3.65929 12.489 2 9.85359 2C8.92541 2 8.17956 2.14786 7.5 2.46V5.13786C8.04696 4.66143 8.99171 4.33286 9.63812 4.33286C10.6492 4.33286 11.0635 4.80929 11.0635 5.43357C11.0635 5.84429 10.9475 6.22214 10.5 6.6L9.68785 7.25714C8.92541 7.88143 8.79282 8.35786 8.79282 9.45857ZM9.91989 10.4443C9.04144 10.4443 8.39503 11.1014 8.39503 11.9886C8.39503 12.8593 9.04144 13.5 9.91989 13.5C10.8149 13.5 11.4779 12.8593 11.4779 11.9886C11.4779 11.1014 10.8149 10.4443 9.91989 10.4443Z" fill="black"/>
<path d="M20.8593 0H22.8593V-2H20.8593V0ZM0 0V-2H-2V0H0ZM20.8593 15.6444V17.6444H22.8593V15.6444H20.8593ZM0 15.6444H-2V17.6444H0V15.6444ZM9.00742 15.6445L10.2303 17.227L14.8666 13.6445H9.00742V15.6445ZM3.7926 19.6741H1.7926V23.7471L5.0155 21.2567L3.7926 19.6741ZM3.7926 15.6445V13.6445H1.7926V15.6445H3.7926ZM11.0801 9.45857V11.4586H13.0801V9.45857H11.0801ZM8.79282 9.45857H6.79282V11.4586H8.79282V9.45857ZM11.5939 8.325L12.9359 9.8079L12.9472 9.79775L12.9582 9.78744L11.5939 8.325ZM12.4392 7.53643L11.1052 6.04634L11.0899 6.06001L11.0749 6.07399L12.4392 7.53643ZM7.5 2.46L6.66519 0.642558L5.5 1.17777V2.46H7.5ZM7.5 5.13786H5.5V9.53228L8.81363 6.64596L7.5 5.13786ZM10.5 6.6L11.758 8.15478L11.7743 8.14163L11.7903 8.12813L10.5 6.6ZM9.68785 7.25714L8.42979 5.70233L8.42079 5.7097L9.68785 7.25714ZM20.8593 -2H0V2H20.8593V-2ZM22.8593 15.6444V0H18.8593V15.6444H22.8593ZM0 17.6444H20.8593V13.6444H0V17.6444ZM-2 0V15.6444H2V0H-2ZM7.78452 14.0619L2.56971 18.0915L5.0155 21.2567L10.2303 17.227L7.78452 14.0619ZM3.7926 17.6445H9.00742V13.6445H3.7926V17.6445ZM5.7926 19.6741V15.6445H1.7926V19.6741H5.7926ZM11.0801 7.45857H8.79282V11.4586H11.0801V7.45857ZM10.2519 6.8421C10.0019 7.06833 9.63821 7.42473 9.38685 7.95497C9.1282 8.50058 9.08011 9.03071 9.08011 9.45857H13.0801C13.0801 9.32786 13.0983 9.46371 13.0013 9.66842C12.9115 9.85777 12.8047 9.92667 12.9359 9.8079L10.2519 6.8421ZM11.0749 6.07399L10.2296 6.86256L12.9582 9.78744L13.8035 8.99887L11.0749 6.07399ZM11.5 5.22C11.5 5.49599 11.442 5.63208 11.403 5.70423C11.3546 5.79369 11.2738 5.89539 11.1052 6.04634L13.7733 9.02652C14.5332 8.34616 15.5 7.18943 15.5 5.22H11.5ZM9.85359 4C10.7315 4 11.0815 4.26227 11.2183 4.40568C11.3821 4.57728 11.5 4.85445 11.5 5.22H15.5C15.5 4.02484 15.1123 2.692 14.1118 1.64379C13.0843 0.567372 11.611 0 9.85359 0V4ZM8.33481 4.27744C8.70149 4.10901 9.15162 4 9.85359 4V0C8.69921 0 7.65762 0.186703 6.66519 0.642558L8.33481 4.27744ZM9.5 5.13786V2.46H5.5V5.13786H9.5ZM9.63812 2.33286C9.01759 2.33286 8.38136 2.48108 7.84155 2.67957C7.29928 2.87897 6.69334 3.18816 6.18637 3.62975L8.81363 6.64596C8.85362 6.61112 8.99354 6.51782 9.22199 6.43382C9.32537 6.39581 9.42378 6.36842 9.50694 6.3515C9.54775 6.3432 9.58071 6.33827 9.60511 6.33555C9.62998 6.33277 9.64077 6.33286 9.63812 6.33286V2.33286ZM13.0635 5.43357C13.0635 4.65939 12.7896 3.78046 12.0316 3.13067C11.3161 2.51724 10.4291 2.33286 9.63812 2.33286V6.33286C9.85818 6.33286 9.68394 6.38669 9.4283 6.16754C9.29845 6.05623 9.19701 5.91334 9.13415 5.76095C9.07421 5.61568 9.06354 5.49743 9.06354 5.43357H13.0635ZM11.7903 8.12813C12.2065 7.77673 12.5529 7.3512 12.7802 6.83465C13.0063 6.32075 13.0635 5.8323 13.0635 5.43357H9.06354C9.06354 5.44556 9.06273 5.35139 9.11899 5.22356C9.1764 5.09308 9.24106 5.04541 9.20973 5.07187L11.7903 8.12813ZM10.9459 8.81193L11.758 8.15478L9.24197 5.04522L8.42981 5.70236L10.9459 8.81193ZM10.7928 9.45857C10.7928 9.2148 10.8007 9.06667 10.812 8.96919C10.8225 8.87937 10.8322 8.86838 10.8217 8.89574C10.8165 8.90923 10.8092 8.92477 10.8006 8.93965C10.7922 8.95418 10.7867 8.96085 10.7885 8.95861C10.7945 8.95102 10.8351 8.90269 10.9549 8.80458L8.42079 5.7097C7.88464 6.14871 7.38397 6.68928 7.08719 7.46265C6.81746 8.16553 6.79282 8.87902 6.79282 9.45857H10.7928ZM10.395 11.9886C10.395 12.0422 10.3692 12.1693 10.252 12.2882C10.1331 12.4087 9.99497 12.4443 9.91989 12.4443V8.44428C7.91095 8.44428 6.39503 10.023 6.39503 11.9886H10.395ZM9.91989 11.5C9.97916 11.5 10.1128 11.5283 10.236 11.6503C10.3601 11.7734 10.395 11.9143 10.395 11.9886H6.39503C6.39503 13.9805 7.95359 15.5 9.91989 15.5V11.5ZM9.4779 11.9886C9.4779 11.8982 9.52056 11.7529 9.64275 11.6345C9.76141 11.5195 9.88107 11.5 9.91989 11.5V15.5C11.8597 15.5 13.4779 14.0228 13.4779 11.9886H9.4779ZM9.91989 12.4443C9.86563 12.4443 9.74131 12.4179 9.62659 12.3042C9.51096 12.1896 9.4779 12.058 9.4779 11.9886H13.4779C13.4779 9.98021 11.9028 8.44428 9.91989 8.44428V12.4443Z" fill="black" mask="url(#path-2-inside-1_17_5768)"/>
</svg>
