<svg width="31" height="28" viewBox="0 0 31 28" fill="none" xmlns="http://www.w3.org/2000/svg">
<path d="M24.4052 2.64944L14.538 12.6843L10.4022 8.40923L10.0303 8.02475L9.67175 8.4218L5.62889 12.8993L5.31571 13.2461L5.64064 13.582L14.1685 22.397L14.5279 22.7685L14.8872 22.397L29.2186 7.58312L29.5549 7.23546L29.2186 6.88781L25.1211 2.65235L24.7646 2.2839L24.4052 2.64944Z" fill="#232428" stroke="#232428"/>
<path fill-rule="evenodd" clip-rule="evenodd" d="M26 15.9267V26H2V2H20.1353L22.1018 0H0V28H28V13.8369L26 15.9267Z" fill="#F0F0F0"/>
<path fill-rule="evenodd" clip-rule="evenodd" d="M14.5409 11.9682L24.7675 1.56775L30.2505 7.23541L14.5278 23.4875L4.63135 13.2579L10.0176 7.29257L14.5409 11.9682Z" fill="#6EFF00"/>
</svg>
