<svg width="32" height="32" viewBox="0 0 32 32" fill="none" xmlns="http://www.w3.org/2000/svg">
<rect x="32" y="4.5" width="2.5" height="32" transform="rotate(90 32 4.5)" fill="#F0F0F0"/>
<rect x="32" y="25" width="2.5" height="32" transform="rotate(90 32 25)" fill="#F0F0F0"/>
<path d="M15 5.75C15 7.82107 13.3211 9.5 11.25 9.5C9.17893 9.5 7.5 7.82107 7.5 5.75C7.5 3.67893 9.17893 2 11.25 2C13.3211 2 15 3.67893 15 5.75Z" fill="#F0F0F0"/>
<path fill-rule="evenodd" clip-rule="evenodd" d="M17 5.75C17 8.92564 14.4256 11.5 11.25 11.5C8.07436 11.5 5.5 8.92564 5.5 5.75C5.5 2.57436 8.07436 0 11.25 0C14.4256 0 17 2.57436 17 5.75ZM11.25 9.5C13.3211 9.5 15 7.82107 15 5.75C15 3.67893 13.3211 2 11.25 2C9.17893 2 7.5 3.67893 7.5 5.75C7.5 7.82107 9.17893 9.5 11.25 9.5Z" fill="#232428"/>
<path d="M15 26.25C15 28.3211 13.3211 30 11.25 30C9.17893 30 7.5 28.3211 7.5 26.25C7.5 24.1789 9.17893 22.5 11.25 22.5C13.3211 22.5 15 24.1789 15 26.25Z" fill="#F0F0F0"/>
<path fill-rule="evenodd" clip-rule="evenodd" d="M17 26.25C17 29.4256 14.4256 32 11.25 32C8.07436 32 5.5 29.4256 5.5 26.25C5.5 23.0744 8.07436 20.5 11.25 20.5C14.4256 20.5 17 23.0744 17 26.25ZM11.25 30C13.3211 30 15 28.3211 15 26.25C15 24.1789 13.3211 22.5 11.25 22.5C9.17893 22.5 7.5 24.1789 7.5 26.25C7.5 28.3211 9.17893 30 11.25 30Z" fill="#232428"/>
<path fill-rule="evenodd" clip-rule="evenodd" d="M27.8845 17.5C27.9603 17.0949 28 16.6771 28 16.25C28 15.8229 27.9603 15.4051 27.8845 15H32V17.5L27.8845 17.5ZM14.6155 17.5L0 17.5V15H14.6155C14.5397 15.4051 14.5 15.8229 14.5 16.25C14.5 16.6771 14.5397 17.0949 14.6155 17.5ZM16.6662 17.5C16.5578 17.1017 16.5 16.6826 16.5 16.25C16.5 15.8174 16.5578 15.3983 16.6662 15H25.8338C25.9422 15.3983 26 15.8174 26 16.25C26 16.6826 25.9422 17.1017 25.8338 17.5L16.6662 17.5Z" fill="#F0F0F0"/>
<path d="M26 16.25C26 18.8734 23.8734 21 21.25 21C18.6266 21 16.5 18.8734 16.5 16.25C16.5 13.6266 18.6266 11.5 21.25 11.5C23.8734 11.5 26 13.6266 26 16.25Z" fill="#6EFF00"/>
</svg>
