<svg width="32" height="28" viewBox="0 0 32 28" fill="none" xmlns="http://www.w3.org/2000/svg">
<rect x="32" y="13" width="2.5" height="32" transform="rotate(90 32 13)" fill="black"/>
<path d="M15 3.75C15 5.82107 13.3211 7.5 11.25 7.5C9.17893 7.5 7.5 5.82107 7.5 3.75C7.5 1.67893 9.17893 0 11.25 0C13.3211 0 15 1.67893 15 3.75Z" fill="black"/>
<path fill-rule="evenodd" clip-rule="evenodd" d="M16.8637 5C16.953 4.59757 17 4.17928 17 3.75C17 3.32072 16.953 2.90243 16.8637 2.5H32V5L16.8637 5ZM5.63625 5L0 5V2.5H5.63625C5.54704 2.90243 5.5 3.32072 5.5 3.75C5.5 4.17928 5.54704 4.59757 5.63625 5ZM7.71338 5C7.57519 4.60903 7.5 4.1883 7.5 3.75C7.5 3.31171 7.57519 2.89097 7.71338 2.5H14.7866C14.9248 2.89097 15 3.31171 15 3.75C15 4.1883 14.9248 4.60903 14.7866 5L7.71338 5Z" fill="black"/>
<path d="M15 24.25C15 26.3211 13.3211 28 11.25 28C9.17893 28 7.5 26.3211 7.5 24.25C7.5 22.1789 9.17893 20.5 11.25 20.5C13.3211 20.5 15 22.1789 15 24.25Z" fill="black"/>
<path fill-rule="evenodd" clip-rule="evenodd" d="M16.8637 25.5C16.953 25.0976 17 24.6793 17 24.25C17 23.8207 16.953 23.4024 16.8637 23L32 23V25.5L16.8637 25.5ZM5.63625 25.5L0 25.5V23L5.63625 23C5.54704 23.4024 5.5 23.8207 5.5 24.25C5.5 24.6793 5.54704 25.0976 5.63625 25.5ZM7.71338 25.5C7.57519 25.109 7.5 24.6883 7.5 24.25C7.5 23.8117 7.57519 23.391 7.71338 23L14.7866 23C14.9248 23.391 15 23.8117 15 24.25C15 24.6883 14.9248 25.109 14.7866 25.5L7.71338 25.5Z" fill="black"/>
<circle cx="21.25" cy="14.25" r="5.75" fill="#6EFF00" stroke="black" stroke-width="2"/>
</svg>
