<svg width="64" height="64" viewBox="0 0 64 64" fill="none" xmlns="http://www.w3.org/2000/svg">
<rect width="63.9996" height="64" rx="31.9998" fill="black"/>
<path fill-rule="evenodd" clip-rule="evenodd" d="M32.8888 50.6666C36.6755 50.6666 40.1955 49.5999 43.0222 47.7866V44.1066C40.4088 46.2933 36.8355 47.6266 32.8888 47.6266C24.0888 47.6266 17.4755 40.7999 17.4755 31.9999C17.4755 23.1999 24.0888 16.3733 32.8888 16.3733C36.8355 16.3733 40.4088 17.7066 43.0222 19.9466V16.2133C40.1955 14.3999 36.6755 13.3333 32.8888 13.3333C22.2755 13.3333 14.2222 21.3866 14.2222 31.9999C14.2222 42.6133 22.2755 50.6666 32.8888 50.6666ZM43.0217 41.9366L49.7773 32.0255L43.0217 22.1144L36.2662 32.0255L43.0217 41.9366Z" fill="white"/>
</svg>
